<svg width="73" height="127" viewBox="0 0 73 127" fill="none" xmlns="http://www.w3.org/2000/svg">
<path d="M37.9201 113.335H24.3076V117.968C24.3076 119.963 25.4704 121.776 27.2844 122.608L33.6863 125.543C36.3744 126.775 39.4661 126.775 42.1541 125.543L48.5561 122.608C50.3697 121.776 51.5328 119.964 51.5328 117.968V113.335H37.9201Z" fill="#7D97F4"/>
<path d="M53.4096 112.174C53.8323 115.333 47.2937 118.814 38.8058 119.95C30.318 121.086 23.0944 119.447 22.6717 116.289C22.2491 113.131 28.7876 109.649 37.2755 108.513C45.7634 107.377 52.987 109.016 53.4096 112.174Z" fill="#1B4C8C"/>
<path d="M38.8039 115.232C48.2456 113.969 55.5187 110.097 55.0489 106.584C54.579 103.071 46.5442 101.247 37.1025 102.511C27.6608 103.774 20.3877 107.646 20.8575 111.159C21.3274 114.672 29.3622 116.496 38.8039 115.232Z" fill="#7D97F4"/>
<path d="M55.6986 101.512C56.1875 105.166 48.6238 109.192 38.805 110.507C28.9863 111.821 20.6304 109.925 20.1416 106.272C19.6527 102.618 27.2164 98.5916 37.0352 97.2771C46.8539 95.9627 55.2101 97.859 55.6986 101.512Z" fill="#1B4C8C"/>
<path d="M38.8036 105.789C48.6228 104.476 56.1867 100.449 55.6981 96.7953C55.2095 93.1419 46.8533 91.2453 37.0341 92.5592C27.2149 93.8731 19.651 97.8999 20.1396 101.553C20.6282 105.207 28.9844 107.103 38.8036 105.789Z" fill="#7D97F4"/>
<path d="M55.6986 92.0696C56.1875 95.7229 48.6238 99.7498 38.805 101.064C28.9863 102.379 20.6304 100.482 20.1416 96.8291C19.6527 93.1759 27.2164 89.1489 37.0352 87.8345C46.8539 86.52 55.2101 88.4164 55.6986 92.0696Z" fill="#1B4C8C"/>
<path d="M38.8036 96.3461C48.6228 95.0322 56.1867 91.0054 55.6981 87.3519C55.2095 83.6985 46.8533 81.8019 37.0341 83.1158C27.2149 84.4297 19.651 88.4566 20.1396 92.11C20.6282 95.7634 28.9844 97.66 38.8036 96.3461Z" fill="#7D97F4"/>
<path d="M47.3506 11.8432C44.578 13.9012 41.5911 15.6948 38.3827 17.1168C36.7749 17.8242 35.0956 18.4102 33.2949 18.7603C31.5156 19.0819 29.5219 19.2177 27.5426 18.3602C27.0495 18.1386 26.5993 17.86 26.1849 17.5313C25.7633 17.2026 25.356 16.7952 25.013 16.2879C24.6771 15.7805 24.4199 15.1517 24.3413 14.5015C24.2555 13.8512 24.3413 13.2009 24.5128 12.6364C24.8629 11.4931 25.4774 10.6213 26.1206 9.86386C26.7708 9.10641 27.4854 8.46329 28.2143 7.87734C29.6863 6.69829 31.2655 5.76934 32.8804 4.95472C34.4954 4.14011 36.1603 3.44697 37.8539 2.84673C41.241 1.64624 44.7424 0.810185 48.3296 0.388585C49.2228 0.281399 50.1231 0.19565 51.0235 0.138483C51.4737 0.1099 51.931 0.0884632 52.3812 0.0741716L53.0601 0.0527344L53.8032 0.0598801C55.7826 0.117046 57.8048 0.517209 59.6842 1.2961C61.5635 2.06784 63.2713 3.23974 64.7148 4.61173C66.1582 5.98371 67.3516 7.56293 68.3162 9.22789C70.2385 12.5721 71.3103 16.2164 71.8748 19.8608C72.9253 27.1709 71.9677 34.5882 69.3953 41.3981C69.0737 42.2484 68.7164 43.0845 68.3448 43.9205C67.9447 44.7852 67.6231 45.4569 67.2873 46.2286C66.637 47.7364 66.0367 49.2727 65.508 50.8448C64.4647 53.9818 63.6501 57.2188 63.0284 60.5273C62.3924 63.8358 62.0137 67.2014 61.5421 70.6314C61.292 72.3464 61.0633 74.0828 60.6274 75.8764C60.3916 76.7767 60.1415 77.6985 59.6056 78.6632C59.334 79.142 58.9624 79.6493 58.4194 80.0638C57.8691 80.4782 57.1403 80.7355 56.4972 80.7355C55.2824 80.7641 54.1962 80.321 53.353 79.7136C52.5098 79.0991 51.8739 78.3702 51.3308 77.6199C50.2518 76.1122 49.4729 74.5401 48.7512 72.9609C48.0223 71.3888 47.3506 69.8096 46.5717 68.2947C46.1858 67.5373 45.7714 66.7941 45.2855 66.101C44.7924 65.415 44.2279 64.7647 43.4847 64.3217C44.2922 64.6361 44.9925 65.2149 45.5927 65.8437C46.2001 66.4797 46.7361 67.18 47.2434 67.8874C48.2367 69.3237 49.1085 70.8243 50.016 72.2749C50.9306 73.7183 51.831 75.1618 52.8957 76.3551C53.4245 76.9482 54.0033 77.4627 54.5964 77.7986C55.1823 78.1344 55.8112 78.2702 56.3257 78.1916C56.5472 78.1559 56.6472 78.0773 56.7759 77.9701C56.8973 77.8414 57.0474 77.6414 57.176 77.3555C57.4333 76.791 57.6048 76.0264 57.7334 75.2547C57.9835 73.6755 58.0835 71.9819 58.1836 70.2741C58.3694 66.8584 58.6195 63.3713 59.0553 59.877C59.4912 56.3827 60.1629 52.8885 61.1705 49.4585C61.6707 47.7435 62.2424 46.0428 62.9141 44.3779C63.2428 43.5632 63.6358 42.67 63.9359 41.9626C64.2432 41.2123 64.5433 40.462 64.8077 39.6902C65.8724 36.6319 66.6084 33.4449 66.93 30.2293C67.273 27.0137 67.2515 23.7624 66.7728 20.6039C66.3154 17.4598 65.3936 14.3871 63.9002 11.7432C62.4353 9.08497 60.3273 6.92695 57.762 5.78363C56.4829 5.20483 55.0823 4.87612 53.6317 4.79037L53.0815 4.76893L52.4741 4.76179L51.2522 4.77608C50.4376 4.79752 49.6229 4.83325 48.8012 4.89756C45.5213 5.19053 42.2557 5.76934 39.0901 6.67685C35.9388 7.59151 32.8447 8.85631 30.2151 10.5784C29.572 11.0143 28.9574 11.4859 28.4429 11.9933C27.9284 12.4935 27.5068 13.0509 27.3139 13.5439C27.1138 14.0513 27.121 14.4014 27.3425 14.8445C27.5568 15.2732 28.1285 15.7948 28.6644 16.1093C29.8078 16.781 31.4298 16.931 33.0234 16.7881C34.6383 16.6523 36.2747 16.2522 37.8896 15.7805C39.5117 15.2946 41.1052 14.6872 42.6773 14.0227C44.2636 13.3724 45.8214 12.6364 47.3506 11.8432Z" fill="#84A9D9"/>
<path d="M37.6019 6.9216C33.7219 5.5416 29.7819 4.6316 25.9519 4.4316C24.0419 4.3416 22.1719 4.4416 20.4219 4.8016C18.6719 5.1716 17.0519 5.7916 15.6219 6.6516C14.1819 7.5116 12.9319 8.6316 11.8519 9.9316C11.3219 10.6016 10.8219 11.2916 10.3619 12.0316C10.1019 12.3916 9.94192 12.7616 9.74192 13.1216L9.45192 13.6616L9.22192 14.2216C7.95192 17.1816 7.80192 20.5316 8.45192 24.0916C9.04192 27.6516 10.2919 31.3216 11.6319 35.0416C12.9819 38.7716 14.4719 42.5516 15.7819 46.4716C17.0819 50.3816 18.2619 54.4116 18.9219 58.5616C19.5919 62.7016 19.7519 66.9716 18.9919 71.0416C17.4319 62.9216 14.0519 55.8416 10.5219 48.6316C8.74192 45.0316 6.93192 41.3916 5.26192 37.5916C4.43192 35.6816 3.67192 33.7116 2.96192 31.6816C2.29192 29.6316 1.71192 27.5116 1.32192 25.2816C0.961916 23.0516 0.771916 20.7116 1.02192 18.3116C1.27192 15.9216 1.92192 13.4916 3.02192 11.3116L3.43192 10.4916L3.91192 9.7216C4.24192 9.2116 4.55192 8.6816 4.91192 8.2316C5.59192 7.2916 6.38192 6.4116 7.21192 5.5716C8.88191 3.8916 10.9019 2.5016 13.1119 1.5516C15.3119 0.611604 17.6719 0.131604 19.9519 0.0616037C22.2419 -0.0083963 24.4619 0.341604 26.5619 0.911604C28.6519 1.5016 30.6419 2.3216 32.4819 3.3316C34.3119 4.3716 36.0619 5.5216 37.6019 6.9216Z" fill="#84A9D9"/>
<path d="M24.9545 68.2544C24.0384 71.0535 23.1196 73.6848 22.4577 76.2565C21.7927 78.7629 21.3588 81.3841 21.7541 83.0132C21.9576 83.8144 22.2821 84.1243 22.5633 84.2998C23.0605 84.654 23.4775 84.8703 24.1533 85.0086C25.4745 85.3103 27.7369 85.2076 30.1146 84.7714C34.9486 83.9529 40.3725 82.4082 46.1925 81.7946C49.1133 81.5214 52.2047 81.4132 55.3384 82.1375C56.8859 82.5072 58.4494 83.1017 59.7835 84.0562C61.121 84.9738 62.1113 86.3148 62.6048 87.6925C59.9906 86.1982 57.5336 86.2918 55.1239 86.7715C52.7125 87.2697 50.2947 88.1304 47.8247 89.0512C42.8495 90.871 37.7573 93.0428 31.6705 94.1153C28.6317 94.5542 25.1684 94.953 21.1916 93.4974C19.2343 92.7353 17.2893 91.3507 16.0355 89.5474C15.3191 88.5582 14.8113 87.4304 14.5267 86.3051C14.2706 85.1732 14.2141 84.0973 14.2898 83.0991C14.468 81.1146 15.0528 79.4571 15.7845 78.0183C16.518 76.561 17.3833 75.2837 18.3323 74.1074C20.2301 71.7548 22.4002 69.7723 24.9545 68.2544Z" fill="#1B4C8C"/>
</svg>
