<svg width="91" height="115" viewBox="0 0 91 115" fill="none" xmlns="http://www.w3.org/2000/svg">
<g clip-path="url(#clip0_540_54)">
<path d="M55.6296 24.26C53.6796 27.89 50.1096 30.58 46.1696 32.12C42.1996 33.71 37.7696 33.96 33.6296 33.78C29.4696 33.58 25.4196 33.01 21.5296 32.93C17.6696 32.83 13.9096 33.19 11.3596 34.97C10.0896 35.85 9.07962 37.02 8.31962 38.48C7.55962 39.92 6.93962 41.64 6.67962 43.21C6.40962 44.81 6.47962 46.42 6.80962 48.05C7.15962 49.68 7.78962 51.32 8.59962 52.96C11.8796 59.57 17.5896 65.72 21.3296 73.81C22.2496 75.84 23.0096 78.01 23.5096 80.29L23.8296 82.02C23.9096 82.6 23.9696 83.19 24.0296 83.78C24.1196 84.87 24.1796 85.88 24.2296 86.93C24.4096 91.1 24.3796 95.26 24.3696 99.26C24.3696 101.25 24.3796 103.23 24.5696 104.94C24.6596 105.79 24.8296 106.57 25.0196 107.08C25.1196 107.32 25.2096 107.51 25.2696 107.6C25.3496 107.68 25.3496 107.75 25.4396 107.79C25.5096 107.84 25.6396 107.91 25.8796 107.95C25.9996 108.03 26.7496 107.97 26.0796 108.07C25.8396 108.16 25.9896 108.17 26.1896 107.98C26.3996 107.82 26.6496 107.57 26.9196 107.27C28.0096 106.06 29.0796 104.38 30.0996 102.72C32.1496 99.35 34.0396 95.73 36.1196 92.2C38.1996 88.67 40.3296 85.12 42.8096 81.75C44.0696 80.08 45.4196 78.45 46.9396 76.95C48.4696 75.47 50.1796 74.04 52.2996 73.22C53.3496 72.81 54.4996 72.58 55.6496 72.64C56.7896 72.69 57.8996 73.04 58.8396 73.58C60.7196 74.69 62.0596 76.34 63.1496 78.05C61.7396 76.59 60.1696 75.22 58.3696 74.57C56.5796 73.87 54.6996 74.11 53.1396 75.04C51.5696 75.96 50.2096 77.33 49.0096 78.83C47.8096 80.34 46.7496 82 45.7596 83.71C43.7496 87.12 42.0096 90.73 40.3196 94.39C38.6196 98.06 36.9296 101.74 35.0296 105.47C34.0496 107.34 33.0696 109.2 31.5896 111.14C31.2196 111.63 30.7796 112.12 30.2196 112.63C29.6696 113.12 28.9496 113.7 27.7296 114.08C27.4596 114.18 27.0696 114.23 26.7196 114.26L26.4496 114.28H26.3096L26.0396 114.27C25.6896 114.27 25.3096 114.25 24.9196 114.18C24.1496 114.09 23.2896 113.85 22.4696 113.43C21.6296 113.03 20.8796 112.38 20.2996 111.7C19.7096 111.01 19.3296 110.29 19.0096 109.6C18.4196 108.23 18.1896 107 17.9996 105.84C17.6596 103.52 17.5996 101.43 17.5196 99.36C17.3996 95.24 17.3796 91.26 17.1096 87.31C17.0496 86.33 16.9896 85.32 16.8996 84.38L16.7396 83.11L16.4996 81.84C16.1196 80.15 15.5196 78.47 14.7596 76.8C13.2596 73.44 11.1196 70.18 8.89962 66.81C6.69962 63.42 4.28962 59.96 2.42962 55.88C1.50962 53.84 0.72962 51.64 0.30962 49.27C-0.10038 46.9 -0.0603803 44.38 0.45962 42C1.00962 39.59 1.86962 37.47 3.13962 35.39C4.39962 33.33 6.23962 31.45 8.42962 30.17C10.6196 28.91 13.0296 28.27 15.3096 28.06C17.5996 27.83 19.7896 27.94 21.8996 28.2C26.1196 28.71 30.0796 29.64 34.0096 30.24C37.9196 30.9 41.7996 31.09 45.6096 30.19C47.4996 29.75 49.3496 29.05 51.0596 28.06C52.7396 27.11 54.3396 25.84 55.6296 24.26Z" fill="#1B4C8C"/>
<path d="M55.1094 16.5C51.2294 19.38 47.0494 21.89 42.5594 23.88C40.3094 24.87 37.9594 25.69 35.4394 26.18C32.9494 26.63 30.1594 26.82 27.3894 25.62C26.6994 25.31 26.0694 24.92 25.4894 24.46C24.8994 24 24.3294 23.43 23.8494 22.72C23.3794 22.01 23.0194 21.13 22.9094 20.22C22.7894 19.31 22.9094 18.4 23.1494 17.61C23.6394 16.01 24.4994 14.79 25.3994 13.73C26.3094 12.67 27.3094 11.77 28.3294 10.95C30.3894 9.3 32.5994 8 34.8594 6.86C37.1194 5.72 39.4494 4.75 41.8194 3.91C46.5594 2.23 51.4594 1.06 56.4794 0.47C57.7294 0.32 58.9894 0.2 60.2494 0.12C60.8794 0.08 61.5194 0.05 62.1494 0.03L63.0994 0L64.1394 0.01C66.9094 0.09 69.7394 0.65 72.3694 1.74C74.9994 2.82 77.3894 4.46 79.4094 6.38C81.4294 8.3 83.0994 10.51 84.4494 12.84C87.1394 17.52 88.6394 22.62 89.4294 27.72C90.8994 37.95 89.5594 48.33 85.9594 57.86C85.5094 59.05 85.0094 60.22 84.4894 61.39C83.9294 62.6 83.4794 63.54 83.0094 64.62C82.0994 66.73 81.2594 68.88 80.5194 71.08C79.0594 75.47 77.9194 80 77.0494 84.63C76.1594 89.26 75.6294 93.97 74.9694 98.77C74.6194 101.17 74.2994 103.6 73.6894 106.11C73.3594 107.37 73.0094 108.66 72.2594 110.01C71.8794 110.68 71.3594 111.39 70.5994 111.97C69.8294 112.55 68.8094 112.91 67.9094 112.91C66.2094 112.95 64.6894 112.33 63.5094 111.48C62.3294 110.62 61.4394 109.6 60.6794 108.55C59.1694 106.44 58.0794 104.24 57.0694 102.03C56.0494 99.83 55.1094 97.62 54.0194 95.5C53.4794 94.44 52.8994 93.4 52.2194 92.43C51.5294 91.47 50.7394 90.56 49.6994 89.94C50.8294 90.38 51.8094 91.19 52.6494 92.07C53.4994 92.96 54.2494 93.94 54.9594 94.93C56.3494 96.94 57.5694 99.04 58.8394 101.07C60.1194 103.09 61.3794 105.11 62.8694 106.78C63.6094 107.61 64.4194 108.33 65.2494 108.8C66.0694 109.27 66.9494 109.46 67.6694 109.35C67.9794 109.3 68.1194 109.19 68.2994 109.04C68.4694 108.86 68.6794 108.58 68.8594 108.18C69.2194 107.39 69.4594 106.32 69.6394 105.24C69.9894 103.03 70.1294 100.66 70.2694 98.27C70.5294 93.49 70.8794 88.61 71.4894 83.72C72.0994 78.83 73.0394 73.94 74.4494 69.14C75.1494 66.74 75.9494 64.36 76.8894 62.03C77.3494 60.89 77.8994 59.64 78.3194 58.65C78.7494 57.6 79.1694 56.55 79.5394 55.47C81.0294 51.19 82.0594 46.73 82.5094 42.23C82.9894 37.73 82.9594 33.18 82.2894 28.76C81.6494 24.36 80.3594 20.06 78.2694 16.36C76.2194 12.64 73.2694 9.62 69.6794 8.02C67.8894 7.21 65.9294 6.75 63.8994 6.63L63.1294 6.6L62.2794 6.59L60.5694 6.61C59.4294 6.64 58.2894 6.69 57.1394 6.78C52.5494 7.19 47.9794 8 43.5494 9.27C39.1394 10.55 34.8094 12.32 31.1294 14.73C30.2294 15.34 29.3694 16 28.6494 16.71C27.9294 17.41 27.3394 18.19 27.0694 18.88C26.7894 19.59 26.7994 20.08 27.1094 20.7C27.4094 21.3 28.2094 22.03 28.9594 22.47C30.5594 23.41 32.8294 23.62 35.0594 23.42C37.3194 23.23 39.6094 22.67 41.8694 22.01C44.1394 21.33 46.3694 20.48 48.5694 19.55C50.7894 18.64 52.9694 17.61 55.1094 16.5Z" fill="#84A9D9"/>
</g>
<defs>
<clipPath id="clip0_540_54">
<rect width="90.01" height="114.28" fill="white"/>
</clipPath>
</defs>
</svg>
