<svg width="99" height="110" viewBox="0 0 99 110" fill="none" xmlns="http://www.w3.org/2000/svg">
<path d="M26.38 12.0389C29.01 13.3389 31.84 14.1089 34.69 14.5289C37.54 14.9489 40.43 15.0089 43.27 14.7189C46.09 14.4089 48.96 13.9089 51.57 13.0089C54.22 12.0889 56.78 10.8089 59.35 9.45888C61.92 8.11888 64.51 6.70888 67.26 5.43888C70.01 4.18888 72.93 3.00888 76.24 2.55888C77.88 2.32888 79.63 2.32888 81.36 2.64888C83.09 2.95888 84.78 3.61888 86.28 4.49888C89.3 6.28888 91.53 8.85888 93.31 11.4789C95.08 14.1289 96.58 17.0889 97.41 20.2789C98.25 23.4589 98.51 26.7789 98.31 29.9589C97.9 36.3689 96.06 42.2289 94.35 47.8389C92.59 53.4489 90.79 58.8789 89.7 64.3689C89.15 67.1089 88.75 69.8589 88.57 72.5989C88.38 75.3089 88.42 78.1489 88.53 80.9589C88.73 86.6089 89.53 92.0589 90.95 97.5889L91.48 99.7689C91.65 100.539 91.84 101.329 91.96 102.359C92.01 102.879 92.06 103.479 91.96 104.279C91.92 104.659 91.81 105.139 91.63 105.599C91.44 106.089 91.17 106.589 90.81 107.029C90.09 107.919 89.22 108.409 88.56 108.689C87.89 108.969 87.33 109.099 86.82 109.199C85.81 109.389 84.97 109.449 84.16 109.489C84.03 109.509 83.56 109.499 83.24 109.489C82.88 109.489 82.56 109.419 82.22 109.369C81.56 109.239 80.96 109.039 80.42 108.799C78.27 107.799 77 106.439 75.87 105.169C73.68 102.579 72.13 99.9589 70.61 97.3589C69.11 94.7589 67.73 92.1589 66.33 89.6089C64.93 87.0589 63.52 84.5489 62.04 82.1289C60.57 79.7089 59.02 77.3689 57.28 75.3089C55.55 73.2689 53.6 71.4589 51.51 70.5589C49.44 69.6189 47.27 69.6989 45.03 70.6889C44.75 70.7989 44.47 70.9389 44.2 71.0889C43.92 71.2289 43.65 71.3889 43.38 71.5589L42.97 71.8089L42.51 72.1189L41.58 72.7289C40.34 73.5389 39.1 74.3489 37.84 75.1289C35.32 76.6989 32.76 78.2189 30.1 79.5989C27.42 80.9489 24.67 82.1989 21.75 83.0889C18.85 83.9689 15.72 84.5789 12.59 84.1489C11.03 83.9389 9.5 83.4589 8.13 82.7289C6.75 81.9989 5.53 81.0189 4.5 79.9189C2.44 77.6889 1.06 75.0189 0 72.2889C1.44 74.8389 3.08 77.2989 5.26 79.1389C7.4 81.0089 10.05 82.0989 12.77 82.1489C15.49 82.2189 18.22 81.4989 20.82 80.4389C23.43 79.3889 25.92 77.9889 28.36 76.4889C30.8 74.9889 33.18 73.3589 35.52 71.6689C36.69 70.8189 37.85 69.9589 39.01 69.0789L39.87 68.4189L40.3 68.0889L40.8 67.7289C41.13 67.4889 41.47 67.2489 41.84 67.0289C42.19 66.7989 42.56 66.5889 42.95 66.3989C44.47 65.6089 46.2 64.9989 48.06 64.8789C49.91 64.7289 51.8 65.0489 53.47 65.6989C56.85 66.9989 59.35 69.2689 61.52 71.5489C65.8 76.2089 68.86 81.3989 71.85 86.4789C73.34 89.0189 74.79 91.5489 76.28 93.9789C77.77 96.3889 79.32 98.7789 80.99 100.609C81.8 101.499 82.7 102.219 83.23 102.439C83.36 102.499 83.45 102.519 83.51 102.529C83.53 102.519 83.57 102.549 83.58 102.539C83.63 102.529 83.53 102.559 83.76 102.539C84.41 102.499 85.03 102.439 85.46 102.349C85.67 102.309 85.82 102.249 85.82 102.249C85.84 102.239 85.59 102.329 85.34 102.649C85.07 102.969 84.99 103.339 84.99 103.389C84.98 103.459 84.99 103.319 84.97 103.119C84.92 102.699 84.78 102.059 84.62 101.399L84.09 99.3189C83.34 96.4389 82.67 93.4089 82.21 90.3889C81.74 87.3589 81.45 84.3089 81.31 81.2689C81.18 78.2389 81.19 75.2089 81.42 72.0789C81.66 68.9789 82.13 65.9189 82.76 62.9289C84.03 56.9389 85.94 51.2289 87.81 45.7089C89.69 40.2089 91.48 34.8089 91.97 29.4989C92.46 24.2089 91.37 19.0989 88.56 14.5389C87.18 12.2589 85.52 10.2489 83.54 8.93888C81.57 7.61888 79.27 7.09888 76.73 7.26888C74.2 7.42888 71.53 8.24888 68.89 9.24888C66.24 10.2589 63.6 11.4889 60.88 12.6589C58.15 13.8089 55.35 14.9289 52.38 15.6789C51.64 15.8589 50.88 16.0289 50.13 16.1589L47.89 16.4689C46.39 16.6289 44.88 16.7389 43.38 16.7089C37.37 16.6889 31.29 15.3089 26.38 12.0389Z" fill="#1B4C8C"/>
<path d="M40.0804 6.86887C36.2004 5.48887 32.2604 4.57887 28.4304 4.37887C26.5204 4.28887 24.6504 4.38887 22.9004 4.74887C21.1504 5.11887 19.5304 5.73887 18.1004 6.59887C16.6604 7.45887 15.4104 8.57887 14.3304 9.87887C13.8004 10.5489 13.3004 11.2389 12.8404 11.9789C12.5804 12.3389 12.4204 12.7089 12.2204 13.0689L11.9304 13.6089L11.7004 14.1689C10.4304 17.1289 10.2804 20.4789 10.9304 24.0389C11.5204 27.5989 12.7704 31.2689 14.1104 34.9889C15.4604 38.7189 16.9504 42.4989 18.2604 46.4189C19.5604 50.3289 20.7404 54.3589 21.4004 58.5089C22.0704 62.6489 22.2304 66.9189 21.4704 70.9889C19.9104 62.8689 16.5304 55.7889 13.0004 48.5789C11.2204 44.9789 9.41043 41.3389 7.74043 37.5389C6.91043 35.6289 6.15043 33.6589 5.44043 31.6289C4.77043 29.5789 4.19043 27.4589 3.80043 25.2289C3.44043 22.9989 3.25043 20.6589 3.50043 18.2589C3.75043 15.8689 4.40043 13.4389 5.50043 11.2589L5.91043 10.4389L6.39043 9.66887C6.72043 9.15887 7.03043 8.62887 7.39043 8.17887C8.07043 7.23887 8.86043 6.35887 9.69043 5.51887C11.3604 3.83887 13.3804 2.44887 15.5904 1.49887C17.7904 0.558869 20.1504 0.0788693 22.4304 0.00886933C24.7204 -0.0611307 26.9404 0.288869 29.0404 0.858869C31.1304 1.44887 33.1204 2.26887 34.9604 3.27887C36.7904 4.31887 38.5404 5.46887 40.0804 6.86887Z" fill="#84A9D9"/>
<path d="M22.76 93.4989C23.96 95.3989 25.06 97.2189 26.25 98.8589C27.4 100.469 28.73 101.999 29.88 102.559C30.45 102.829 30.79 102.789 31.03 102.709C31.48 102.589 31.81 102.449 32.22 102.119C33.04 101.489 34.08 100.109 34.98 98.4989C36.85 95.2589 38.5799 91.3189 41.0499 87.5989C42.3099 85.7489 43.75 83.8789 45.7 82.3889C46.67 81.6589 47.78 81.0289 48.99 80.7089C50.18 80.3689 51.45 80.4389 52.5 80.8189C50.35 81.6289 49.21 83.1189 48.32 84.7689C47.44 86.4289 46.77 88.2689 46.11 90.1689C44.76 93.9789 43.5599 98.0289 41.2299 102.129C40.0099 104.129 38.56 106.359 35.77 107.989C34.37 108.769 32.61 109.239 30.94 109.099C30.01 109.039 29.1 108.789 28.3 108.409C27.51 108.009 26.85 107.519 26.3 106.989C25.22 105.919 24.53 104.769 24.04 103.639C23.54 102.499 23.21 101.369 22.98 100.239C22.52 97.9789 22.41 95.7389 22.76 93.4989Z" fill="#84A9D9"/>
</svg>
