<svg width="84" height="100" viewBox="0 0 84 100" fill="none" xmlns="http://www.w3.org/2000/svg">
<path fill-rule="evenodd" clip-rule="evenodd" d="M26.4019 0.25685C21.9892 1.01572 16.9225 3.85758 12.574 8.01296C10.6713 9.83125 10.3731 10.3622 10.8036 11.1663C11.4151 12.3083 12.5759 11.9367 14.8114 9.88269C19.3911 5.67493 23.6242 3.5087 28.4468 2.90416C30.1823 2.68654 33.5487 3.32974 35.2274 4.19929L36.2288 4.71809L34.2011 5.13026C31.5384 5.67119 28.1059 7.38753 26.1227 9.16935C24.5142 10.6147 24.1414 11.5884 24.9045 12.351C25.5506 12.9967 26.2359 12.7698 28.1411 11.2785C30.9407 9.08766 33.5297 7.97305 35.8601 7.95528C38.3836 7.93626 40.0214 8.49622 40.5758 9.56749C41.2399 10.8514 41.59 13.3456 41.3211 14.8799C40.4844 19.6495 33.886 25.3606 22.3985 31.2582C19.51 32.7413 16.176 34.7193 14.989 35.654C10.4314 39.2444 7.66057 43.5498 6.58741 48.7094L6.39804 49.6188L5.63466 48.8556C4.54465 47.7666 3.94786 44.4536 3.73167 38.291C3.43499 29.8328 4.65291 24.3158 8.21556 17.9805C9.63968 15.4482 9.83091 14.5887 9.10497 13.9866C8.11354 13.1642 7.25969 13.7394 5.88766 16.1547C1.78344 23.379 0.0183403 31.724 0.782033 40.2923C1.17168 44.6656 1.89481 48.5869 2.54245 49.8383C2.9789 50.6814 4.83728 52.0688 6.04334 52.4513C6.52345 52.6035 6.83542 53.069 7.06565 53.9766C8.55435 59.8392 12.2443 65.0827 17.2769 68.4855L19.2267 69.804V73.0272V76.2506L14.6757 77.3892C12.1725 78.0153 9.47028 78.8621 8.6704 79.2708C5.31615 80.9847 2.55026 84.3921 1.639 87.9327C1.36167 89.0095 1.0054 91.7844 0.846922 94.0993C0.607644 97.594 0.635096 98.4274 1.00883 99.0098L1.459 99.7113H29.5066C54.7768 99.7113 57.6032 99.6621 58.0521 99.2134C58.4711 98.7947 58.521 98.1874 58.3666 95.3941C58.0615 89.8822 57.6865 87.9052 56.476 85.4288C55.2868 82.996 54.2708 82.1492 53.2846 82.7696C52.4155 83.3168 52.4985 84.0769 53.6827 86.4112C54.8151 88.6432 55.3929 91.7127 55.4091 95.5803L55.4147 96.9053H29.4926H3.57007L3.77129 93.8655C4.13192 88.4112 4.86411 86.3005 7.2079 83.9584C9.11339 82.0538 10.5169 81.4339 16.0665 80.0459C19.6697 79.1449 21.0851 78.6541 21.4885 78.1662C21.9302 77.6321 22.0344 76.8938 22.0344 74.2995V71.0932L23.9842 71.7143C27.6301 72.8756 31.0767 72.8014 36.3068 71.4483C37 71.269 37.0088 71.3052 37.0088 74.3865C37.0088 76.9026 37.1142 77.6312 37.5547 78.154C37.9468 78.6198 39.5064 79.1667 43.0921 80.0967C45.8374 80.8085 48.5125 81.4567 49.0369 81.5365C50.2027 81.7149 50.8872 81.0283 50.617 79.9524C50.3793 79.0064 49.2877 78.5665 43.95 77.267L39.8164 76.2609V73.0446V69.8286L41.9831 68.3891C44.753 66.5487 45.809 65.3365 45.463 64.394C45.0029 63.1404 43.8399 63.358 41.4933 65.1367C38.7364 67.2262 35.6083 68.7056 32.5373 69.3715C30.4628 69.8214 29.7278 69.8467 27.6251 69.5405C21.6117 68.6644 15.5508 64.582 12.4102 59.2924C10.2221 55.6069 9.09904 51.372 9.59288 48.6682C10.0608 46.106 11.9233 42.7928 14.3026 40.2895C16.7881 37.6743 18.6302 36.4375 24.3953 33.5121C26.6374 32.3744 29.7109 30.6661 31.2252 29.7162C33.2149 28.4675 34.1605 28.0435 34.6356 28.1869C38.8431 29.4571 44.3609 34.4184 46.7399 39.0704C48.4897 42.4922 49.7994 46.5428 49.7994 48.5335C49.7994 50.1451 50.1881 50.7621 51.2032 50.7621C52.0895 50.7621 52.607 50.1828 52.607 49.1901C52.607 48.5052 52.8086 48.3063 53.8041 48.0082C55.4135 47.5262 55.8552 46.9625 56.7746 44.2148C58.9116 37.8293 58.5394 31.7437 55.8574 29.2257C55.3187 28.72 55.1028 28.1819 55.1028 27.3448C55.1028 25.298 54.1881 21.6879 53.0706 19.3249C51.6833 16.3914 48.8638 13.4993 46.1512 12.227C44.388 11.4001 44.1896 11.2059 43.8436 9.97186C43.6352 9.22921 42.9495 7.82496 42.32 6.85127C38.9782 1.68386 32.8552 -0.852457 26.4019 0.25685ZM44.3711 14.9747C43.3052 18.7344 42.3303 20.3397 39.1598 23.5576C37.891 24.8456 37.0116 25.9577 37.2059 26.0291C37.9437 26.3006 41.2877 28.4104 42.8687 29.6024C46.2564 32.1552 50.1469 38.194 51.7033 43.3144C52.062 44.4957 52.4473 45.4597 52.5593 45.4572C53.8983 45.4257 55.7142 38.2174 55.2266 34.8702C54.886 32.5325 54.1095 31.4038 51.7179 29.771C50.506 28.9433 49.4253 27.9861 49.3167 27.6441C49.016 26.6969 50.0421 25.7282 51.118 25.943C51.8062 26.0808 51.9831 26.0016 51.9831 25.557C51.9831 24.6432 51.0338 21.7219 50.2065 20.0891C48.9037 17.5178 44.6959 13.8298 44.3711 14.9747ZM40.6185 47.5106C39.7344 48.3945 39.9016 48.734 43.0206 52.3902C44.5143 54.1412 44.5352 54.1948 44.1478 55.2651C43.7781 56.2872 43.8134 56.4402 44.7043 57.6902C45.2272 58.4238 45.833 59.5855 46.0501 60.2714C46.2673 60.9573 46.7727 61.9575 47.1735 62.494C47.8025 63.3365 47.8546 63.5949 47.5551 64.3878C47.3645 64.8925 47.2983 65.6461 47.4084 66.0623C47.5186 66.4783 51.5454 71.5085 56.3569 77.2402L65.105 87.6617L63.9635 88.8299C63.0538 89.7612 62.862 90.1569 63.0189 90.7807C63.2666 91.7672 64.2768 92.1108 65.179 91.5156C65.5568 91.2668 67.1291 89.9923 68.6733 88.6837L71.481 86.3049L72.327 87.3181L73.1734 88.3314L71.8591 89.4186C68.4555 92.2339 68.2013 92.9096 69.7901 94.9137C71.1219 96.5939 72.0369 97.1105 73.0183 96.736C74.2219 96.2771 83.7188 88.2217 83.9078 87.4996C83.9995 87.1485 83.9531 86.5418 83.8043 86.1508C83.3803 85.0362 81.1616 82.8753 80.4413 82.8753C80.0831 82.8753 78.8328 83.6451 77.6632 84.586C76.4936 85.527 75.4576 86.2986 75.3612 86.3008C75.1435 86.3058 73.7262 84.413 73.8713 84.311C73.9293 84.2702 75.4158 83.0106 77.1744 81.5122C80.6434 78.5565 81.1463 77.6025 79.6049 76.9007C78.814 76.5406 78.8484 76.5269 76.7844 78.0231C76.1923 78.4524 75.7084 77.9355 67.3003 67.8984C62.4274 62.0812 58.1685 57.2356 57.8362 57.1302C57.504 57.0248 56.7596 57.027 56.1822 57.1355C55.3043 57.2998 55.0535 57.2122 54.6523 56.6005C54.3884 56.198 53.5745 55.542 52.8438 55.1432C52.1132 54.7442 50.928 53.8559 50.2105 53.1694C49.0584 52.0669 48.777 51.9416 47.8078 52.0987C46.7449 52.2711 46.6391 52.1929 44.4953 49.6488C42.2351 46.9665 41.5444 46.5855 40.6185 47.5106ZM47.4584 55.7528C47.3517 55.9255 47.5417 56.4561 47.8811 56.9325C48.2202 57.4086 48.5914 58.2963 48.7056 58.9052C48.8201 59.5141 49.2319 60.411 49.6209 60.8987L50.3285 61.7854L51.6967 60.5099L53.0647 59.2344L52.4461 58.5385C52.1057 58.1556 51.2322 57.5767 50.5053 57.2515C49.7785 56.9263 49.0366 56.3857 48.8566 56.0496C48.5059 55.3948 47.7756 55.2396 47.4584 55.7528ZM53.6053 62.7428L50.4139 65.4622L51.0254 66.2965C51.3614 66.7551 52.1815 67.7528 52.8479 68.5132L54.0589 69.896L57.1546 67.2814C58.8573 65.8435 60.3042 64.6294 60.3703 64.5833C60.5553 64.4548 59.6671 63.2358 58.161 61.5506L56.7964 60.0235L53.6053 62.7428ZM59.2217 69.3204C57.4709 70.7858 56.0387 72.0585 56.0387 72.1486C56.0387 72.2384 56.554 72.9283 57.1842 73.6816L58.3297 75.0512L59.3789 74.1308C60.4786 73.1656 61.5835 72.9526 62.2156 73.5843C62.8732 74.2415 62.6212 75.084 61.4447 76.1611C60.1622 77.3353 60.1544 77.3001 62.2299 79.7422L63.1443 80.8185L64.2817 79.8202C65.4819 78.7673 66.2761 78.5777 66.8951 79.1963C67.5727 79.8735 67.2953 80.941 66.1657 82.0061L65.0617 83.0468L66.2019 84.3781C66.8289 85.1101 67.4585 85.6679 67.6008 85.6174C68.0066 85.4733 73.8207 80.5766 73.8207 80.3789C73.8207 80.2249 63.7742 68.0973 62.7781 67.0488C62.4814 66.7364 61.7495 67.2038 59.2217 69.3204ZM76.2001 89.6122C72.595 92.6393 71.7989 93.4758 72.5229 93.4758C73.0258 93.4758 80.6861 86.8726 80.5114 86.5898C80.4144 86.433 80.2912 86.3049 80.2372 86.3049C80.1836 86.3049 78.3667 87.7933 76.2001 89.6122Z" fill="#285692"/>
</svg>
